<svg width="214" height="246" viewBox="0 0 214 246" fill="none" xmlns="http://www.w3.org/2000/svg">
<path d="M33.5766 157.931L28.9398 158.77L28.029 153.747L22.52 154.746L23.4308 159.77L18.7996 160.609L19.8318 166.311L24.4631 165.472L25.3739 170.495L30.8828 169.501L29.972 164.473L34.6088 163.634L33.5766 157.931Z" stroke="#50505B" stroke-linecap="round" stroke-linejoin="round"/>
<path d="M79.8674 80.9826L75.4238 79.4149L77.124 74.6015L71.8468 72.7357L70.1467 77.5492L65.7031 75.9815L63.7766 81.4463L68.2147 83.014L66.5145 87.8329L71.7916 89.6932L73.4973 84.8797L77.9354 86.4474L79.8674 80.9826Z" stroke="#50505B" stroke-linecap="round" stroke-linejoin="round"/>
<path d="M191.946 138.512L187.783 140.715L185.393 136.199L180.442 138.816L182.832 143.331L178.67 145.533L181.38 150.656L185.542 148.454L187.932 152.963L192.884 150.347L190.494 145.832L194.656 143.629L191.946 138.512Z" stroke="#50505B" stroke-linecap="round" stroke-linejoin="round"/>
<path d="M14.2125 145.964C16.0782 145.964 17.5907 144.452 17.5907 142.586C17.5907 140.72 16.0782 139.208 14.2125 139.208C12.3467 139.208 10.8342 140.72 10.8342 142.586C10.8342 144.452 12.3467 145.964 14.2125 145.964Z" stroke="#50505B" stroke-linecap="round" stroke-linejoin="round"/>
<path d="M66.8346 97.4212C66.8346 97.598 66.7822 97.7709 66.6839 97.918C66.5857 98.065 66.446 98.1796 66.2826 98.2473C66.1192 98.315 65.9394 98.3327 65.7659 98.2982C65.5925 98.2637 65.4331 98.1785 65.3081 98.0535C65.183 97.9284 65.0978 97.7691 65.0633 97.5956C65.0288 97.4222 65.0465 97.2424 65.1142 97.079C65.1819 96.9155 65.2965 96.7759 65.4436 96.6776C65.5906 96.5794 65.7635 96.5269 65.9404 96.5269C66.1776 96.5269 66.405 96.6211 66.5727 96.7888C66.7404 96.9565 66.8346 97.184 66.8346 97.4212Z" stroke="#50505B" stroke-linecap="round" stroke-linejoin="round"/>
<path d="M25.915 82.0811C25.915 82.7056 25.7298 83.316 25.3829 83.8353C25.0359 84.3545 24.5428 84.7592 23.9658 84.9982C23.3889 85.2372 22.754 85.2997 22.1416 85.1779C21.5291 85.056 20.9665 84.7553 20.5249 84.3137C20.0833 83.8722 19.7826 83.3096 19.6608 82.6971C19.5389 82.0846 19.6015 81.4497 19.8404 80.8728C20.0794 80.2958 20.4841 79.8027 21.0034 79.4558C21.5226 79.1088 22.1331 78.9236 22.7575 78.9236C23.5945 78.9251 24.3968 79.2582 24.9886 79.85C25.5804 80.4419 25.9135 81.2441 25.915 82.0811Z" stroke="#50505B" stroke-linecap="round" stroke-linejoin="round"/>
<path d="M165.035 124.85C165.035 125.204 164.931 125.55 164.734 125.844C164.538 126.138 164.258 126.367 163.931 126.502C163.605 126.638 163.245 126.673 162.898 126.604C162.551 126.535 162.232 126.365 161.982 126.115C161.732 125.865 161.562 125.546 161.493 125.199C161.424 124.852 161.459 124.492 161.595 124.166C161.73 123.839 161.959 123.56 162.253 123.363C162.547 123.166 162.893 123.062 163.247 123.062C163.721 123.062 164.176 123.25 164.512 123.585C164.847 123.921 165.035 124.376 165.035 124.85Z" stroke="#50505B" stroke-linecap="round" stroke-linejoin="round"/>
<path d="M146.957 70.34C149.168 70.34 150.959 68.5483 150.959 66.338C150.959 64.1278 149.168 62.336 146.957 62.336C144.747 62.336 142.955 64.1278 142.955 66.338C142.955 68.5483 144.747 70.34 146.957 70.34Z" stroke="#50505B" stroke-linecap="round" stroke-linejoin="round"/>
<path d="M122.316 102.312C122.526 102.626 128.858 103.891 132.142 108.665C134.053 111.409 135.656 114.354 136.922 117.448C136.922 117.448 142.415 120.716 145.23 123.409C148.045 126.103 151.401 129.68 153.99 131.557C156.579 133.434 161.906 136.994 163.247 141.162C163.247 141.162 155.26 163.037 153.002 167.873C150.744 172.708 145.175 182.97 145.175 182.97L135.239 225.182H77.6043L75.6392 210.703C75.6392 210.703 57.9752 207.236 50.595 200.767C50.595 200.767 49.8995 184.759 52.9851 170.478C56.0708 156.198 66.5643 126.506 73.6741 117.437C73.6741 117.437 85.0287 112.005 95.0475 110.261C95.0475 110.261 101.55 105.122 105.806 104.575C110.062 104.029 122.316 102.312 122.316 102.312Z" fill="white"/>
<path d="M76.4175 217.227C81.5345 218.204 85.9947 219.049 91.2056 218.988C96.4164 218.927 101.738 217.757 105.999 214.771C106.822 214.086 107.756 213.544 108.759 213.17C111.022 212.535 113.263 214.031 115.51 214.727C118.358 215.61 121.483 215.19 124.276 214.13C127.069 213.071 129.581 211.42 132.07 209.775C131.702 214.854 131.583 219.941 131.711 225.038L135.261 225.182L144.352 185.178C144.352 185.178 128.802 203.24 121.223 208.633L106.684 204.89C106.684 204.89 105.315 206.027 102.433 206.601C102.433 206.601 101.114 211.674 93.6951 211.685C86.2762 211.696 75.6392 210.703 75.6392 210.703L76.4175 217.227Z" fill="#50505B"/>
<path opacity="0.5" d="M76.4175 217.227C81.5345 218.204 85.9947 219.049 91.2056 218.988C96.4164 218.927 101.738 217.757 105.999 214.771C106.822 214.086 107.756 213.544 108.759 213.17C111.022 212.535 113.263 214.031 115.51 214.727C118.358 215.61 121.483 215.19 124.276 214.13C127.069 213.071 129.581 211.42 132.07 209.775C131.702 214.854 131.583 219.941 131.711 225.038L135.261 225.182L144.352 185.178C144.352 185.178 128.802 203.24 121.223 208.633L106.684 204.89C106.684 204.89 105.315 206.027 102.433 206.601C102.433 206.601 101.114 211.674 93.6951 211.685C86.2762 211.696 75.6392 210.703 75.6392 210.703L76.4175 217.227Z" fill="white"/>
<path d="M61.519 142.586C61.519 142.586 54.7681 175.358 55.1103 186.613C55.1103 186.613 64.2846 184.041 70.6878 186.613C70.6878 186.613 59.7913 185.399 55.0993 190.395C50.4073 195.39 64.8476 208.517 93.7393 205.851C93.7393 205.851 99.5022 207.656 102.428 206.596C102.428 206.596 101.644 211.818 93.6896 211.68C85.7684 211.365 62.5954 211.172 50.5894 200.772C50.595 200.778 49.0825 170.649 61.519 142.586Z" fill="#50505B"/>
<path opacity="0.6" d="M61.519 142.586C61.519 142.586 54.7681 175.358 55.1103 186.613C55.1103 186.613 64.2846 184.041 70.6878 186.613C70.6878 186.613 59.7913 185.399 55.0993 190.395C50.4073 195.39 64.8476 208.517 93.7393 205.851C93.7393 205.851 99.5022 207.656 102.428 206.596C102.428 206.596 101.644 211.818 93.6896 211.68C85.7684 211.365 62.5954 211.172 50.5894 200.772C50.595 200.778 49.0825 170.649 61.519 142.586Z" fill="white"/>
<path d="M75.3245 148.868C75.3245 148.868 77.3172 163.38 80.5353 166.416C83.7535 169.452 98.7513 168.458 104.691 171.731C104.691 171.731 110.283 162.044 120.395 155.983L106.684 177.572L94.8321 174.773L80.3642 172.565L79.1498 175.358H76.9749C76.9749 175.358 76.7321 159.869 75.3245 148.868Z" fill="#50505B"/>
<path opacity="0.5" d="M75.3245 148.868C75.3245 148.868 77.3172 163.38 80.5353 166.416C83.7535 169.452 98.7513 168.458 104.691 171.731C104.691 171.731 110.283 162.044 120.395 155.983L106.684 177.572L94.8321 174.773L80.3642 172.565L79.1498 175.358H76.9749C76.9749 175.358 76.7321 159.869 75.3245 148.868Z" fill="white"/>
<path d="M132.01 119.308C138.208 122.957 138.904 127.069 140.179 130.006C136.955 130.646 133.621 131.331 130.961 133.257C127.649 135.664 125.855 139.649 124.464 143.519C123.148 147.18 122.042 150.914 121.152 154.702C124.148 149.29 128.407 144.68 133.566 141.267C136.541 139.301 140.218 137.717 143.613 138.827C140.764 140.036 137.541 141.669 136.939 144.705C136.821 145.209 136.842 145.736 137 146.229C137.507 147.659 139.285 148.045 140.632 148.741C143.259 150.093 144.628 153.157 144.744 156.126C144.86 159.096 143.949 161.967 143.05 164.776C142.258 167.238 141.467 169.7 140.676 172.162C139.666 175.308 138.639 178.499 136.812 181.259C134.985 184.019 132.241 186.332 128.979 186.873C127.615 187.136 126.203 186.976 124.933 186.415C123.97 185.891 123.074 185.251 122.267 184.51C118.353 181.349 113.65 179.319 108.665 178.637C115.08 182.876 118.116 190.577 120.776 197.791C119.555 195.653 117.794 193.871 115.67 192.625C115.126 192.246 114.479 192.041 113.816 192.039C112.071 192.177 111.519 194.402 110.47 195.793C109.212 197.449 106.91 198.04 104.846 197.775C102.781 197.51 100.882 196.544 99.0275 195.567L75.562 183.467L73.906 188.435C73.906 188.435 92.5967 203.339 121.234 208.611C121.234 208.611 139.837 193.911 146.428 180.878C153.019 167.845 163.258 141.134 163.258 141.134C163.258 141.134 159.51 134.035 153.085 130.331C153.085 130.331 148.288 128.063 147.278 125.259C146.268 122.454 137.254 117.613 137.254 117.613C137.254 117.613 138.424 120.605 132.01 119.308Z" fill="#50505B"/>
<path opacity="0.6" d="M132.01 119.308C138.208 122.957 138.904 127.069 140.179 130.006C136.955 130.646 133.621 131.331 130.961 133.257C127.649 135.664 125.855 139.649 124.464 143.519C123.148 147.18 122.042 150.914 121.152 154.702C124.148 149.29 128.407 144.68 133.566 141.267C136.541 139.301 140.218 137.717 143.613 138.827C140.764 140.036 137.541 141.669 136.939 144.705C136.821 145.209 136.842 145.736 137 146.229C137.507 147.659 139.285 148.045 140.632 148.741C143.259 150.093 144.628 153.157 144.744 156.126C144.86 159.096 143.949 161.967 143.05 164.776C142.258 167.238 141.467 169.7 140.676 172.162C139.666 175.308 138.639 178.499 136.812 181.259C134.985 184.019 132.241 186.332 128.979 186.873C127.615 187.136 126.203 186.976 124.933 186.415C123.97 185.891 123.074 185.251 122.267 184.51C118.353 181.349 113.65 179.319 108.665 178.637C115.08 182.876 118.116 190.577 120.776 197.791C119.555 195.653 117.794 193.871 115.67 192.625C115.126 192.246 114.479 192.041 113.816 192.039C112.071 192.177 111.519 194.402 110.47 195.793C109.212 197.449 106.91 198.04 104.846 197.775C102.781 197.51 100.882 196.544 99.0275 195.567L75.562 183.467L73.906 188.435C73.906 188.435 92.5967 203.339 121.234 208.611C121.234 208.611 139.837 193.911 146.428 180.878C153.019 167.845 163.258 141.134 163.258 141.134C163.258 141.134 159.51 134.035 153.085 130.331C153.085 130.331 148.288 128.063 147.278 125.259C146.268 122.454 137.254 117.613 137.254 117.613C137.254 117.613 138.424 120.605 132.01 119.308Z" fill="white"/>
<path d="M130.039 68.4963C130.039 68.4963 131.292 53.8849 124.994 52.4883C118.695 51.0918 115.157 45.3123 115.157 45.3123L92.812 51.5499L89.3455 64.9856L91.5535 71.7863C91.5535 71.7863 92.0171 78.0956 92.1055 81.2144C92.1938 84.3332 92.1055 86.7344 94.468 90.5211C96.8306 94.3079 99.0275 98.067 104.134 101.34V109.946C104.134 109.946 100.976 119.159 102.72 124.811C102.72 124.811 103.764 125.915 106.645 124.259C109.527 122.603 121.853 114.368 126.153 105.767L127.489 83.9027C127.489 83.9027 131.038 84.4547 132.567 81.22C134.814 78.057 134.725 74.3696 133.853 71.3667C132.981 68.3639 129.227 70.3069 129.227 70.3069L130.039 68.4963Z" fill="#999999"/>
<path d="M104.376 89.9195C105.008 89.2315 105.787 88.6946 106.654 88.3487C107.522 88.0027 108.457 87.8566 109.388 87.9212C109.388 87.9212 112.077 83.6764 114.908 84.4547C114.908 84.4547 115.781 88.9535 112.386 90.7254C107.97 93.0272 104.376 89.9195 104.376 89.9195Z" fill="#737373"/>
<path d="M96.0741 49.6897C96.0741 49.6897 90.7253 56.7167 91.0344 64.0417C91.3435 71.3667 92.4089 76.5611 92.0997 82.2135C91.7906 87.866 97.7522 97.3328 103.863 101.147C108.428 104.001 114.152 103.515 118.596 100.595C123.564 97.2831 126.296 91.3326 127.295 85.6194C127.395 85.0674 127.472 84.5154 127.527 83.9192" stroke="#263238" stroke-linecap="round" stroke-linejoin="round"/>
<path d="M103.863 101.153C103.863 101.153 104.73 109.068 103.863 111.779C102.908 114.754 101.754 121.682 102.759 124.811C103.764 127.941 122.559 114.787 126.191 105.762C126.191 105.762 126.694 88.2248 127.947 83.8419" stroke="#263238" stroke-linecap="round" stroke-linejoin="round"/>
<path d="M103.344 89.7263C103.344 89.7263 111.894 92.144 115.394 83.3176" stroke="#263238" stroke-linecap="round" stroke-linejoin="round"/>
<path d="M104.034 103.057C104.034 103.057 105.856 108.704 109.786 109.041C113.716 109.377 123.547 101.5 126.898 92.2213V87.579C126.898 87.579 124.138 99.723 116.057 101.931C107.975 104.139 104.194 101.329 104.194 101.329L104.034 103.057Z" fill="#263238"/>
<path d="M114.903 84.4547C111.105 84.1897 109.383 87.9212 109.383 87.9212C108.447 87.807 107.497 87.9302 106.621 88.2794C105.745 88.6286 104.972 89.1926 104.371 89.9195C105.307 90.7587 106.457 91.3218 107.694 91.546C108.93 91.7701 110.205 91.6466 111.376 91.1891C115.692 89.6876 114.903 84.4547 114.903 84.4547Z" stroke="#263238" stroke-linecap="round" stroke-linejoin="round"/>
<path d="M105.381 67.8063C105.428 69.5576 105.351 71.31 105.149 73.0503C104.945 74.6125 104.222 76.1084 103.62 77.5767C103.068 78.9126 102.146 80.966 102.913 82.3736C103.786 83.9689 106.684 82.3736 106.684 82.3736" stroke="#263238" stroke-linecap="round" stroke-linejoin="round"/>
<path d="M108.467 82.0424C109.444 82.1749 110.829 82.0424 111.105 80.3478" stroke="#263238" stroke-linecap="round" stroke-linejoin="round"/>
<path d="M111.624 65.6977C112.569 64.7967 113.824 64.294 115.129 64.294C116.435 64.294 117.69 64.7967 118.634 65.6977" stroke="#263238" stroke-width="2" stroke-linecap="round" stroke-linejoin="round"/>
<path d="M100.485 67.0777C100.485 67.0777 97.8959 63.7657 94.5066 67.0777" stroke="#263238" stroke-width="2" stroke-linecap="round" stroke-linejoin="round"/>
<path d="M125.496 75.4516C125.496 75.4516 128.449 68.3584 132.302 69.8819C134.957 70.9362 135.117 75.5178 133.71 78.7139C132.302 81.91 131.595 85.1668 126.903 83.3452" stroke="#263238" stroke-linecap="round" stroke-linejoin="round"/>
<path d="M126.02 74.3641C126.02 74.3641 123.183 73.3595 122.659 68.7503C122.134 64.1411 124.96 59.5263 123.912 56.2143C122.863 52.9023 114.599 54.5583 112.717 48.7844C112.717 48.7844 106.513 53.4102 94.5011 52.4166C94.5011 52.4166 91.9674 56.7332 91.5258 59.3718C90.9344 63.4973 90.9493 67.6871 91.5699 71.8083C91.5699 71.9519 91.6196 72.0899 91.6472 72.2334C92.5083 76.7267 88.2193 66.1172 88.3352 61.5853C88.4511 57.0534 85.7187 51.296 89.2791 47.007C92.8395 42.7179 105.894 40.2063 108.467 38.1915C111.039 36.1767 116.04 41.5422 121.82 43.5183C127.599 45.4945 132.39 47.8515 131.662 56.0487C130.933 64.2459 131.7 65.3444 131.733 69.6611C131.733 69.6721 129.062 68.6675 126.02 74.3641Z" fill="#263238"/>
<path d="M115.14 71.6703C115.14 72.7743 114.715 73.6907 114.185 73.6907C113.655 73.6907 113.236 72.7854 113.236 71.6703C113.236 70.5553 113.661 69.6555 114.185 69.6555C114.71 69.6555 115.14 70.5663 115.14 71.6703Z" fill="#263238"/>
<path d="M100.485 71.6703C100.485 72.7743 100.06 73.6907 99.5354 73.6907C99.011 73.6907 98.5859 72.7854 98.5859 71.6703C98.5859 70.5553 99.011 69.6555 99.5354 69.6555C100.06 69.6555 100.485 70.5663 100.485 71.6703Z" fill="#263238"/>
<path d="M111.624 74.3641C111.624 74.3641 113.595 76.4562 116.09 76.7543" stroke="#263238" stroke-linecap="round" stroke-linejoin="round"/>
<path d="M98.1995 76.7543C98.1995 76.7543 101.804 76.5003 102.615 74.3641" stroke="#263238" stroke-linecap="round" stroke-linejoin="round"/>
<path d="M106.579 126.153C109.262 124.447 112.811 125.087 115.748 126.296C117.359 126.964 118.894 127.803 120.5 128.504C121.294 128.855 122.114 129.147 122.951 129.376C124.966 129.901 124.243 127.4 124.127 126.28C123.961 124.673 123.845 123.062 123.652 121.466C123.573 121.136 123.612 120.788 123.763 120.484C123.961 120.238 124.238 120.068 124.546 120.003C128.085 118.899 131.899 119.385 135.586 119.451C135.921 119.491 136.26 119.427 136.558 119.269C137.11 118.91 137.049 118.099 136.9 117.459C135.625 112.005 131.126 106.579 126.236 103.852" stroke="#263238" stroke-linecap="round" stroke-linejoin="round"/>
<path d="M104.172 104.735C101.738 105.751 99.2371 106.805 97.1395 108.362C96.3785 108.917 95.6774 109.549 95.0475 110.25C94.54 110.732 94.221 111.38 94.1477 112.077C94.1613 112.401 94.2472 112.718 94.399 113.004C94.5509 113.291 94.7649 113.54 95.0254 113.733C95.3959 114.038 95.804 114.294 96.2398 114.495C97.2555 114.975 98.4478 115.444 98.8783 116.465C98.9829 116.679 99.0213 116.919 98.9887 117.155C98.9339 117.362 98.8276 117.552 98.6796 117.707C97.8406 118.728 96.3612 119.518 96.4716 120.837C96.5434 121.858 97.5756 122.493 98.492 122.946C99.4083 123.398 100.479 123.867 100.794 124.845" stroke="#263238" stroke-linecap="round" stroke-linejoin="round"/>
<path d="M89.7593 52.9741C90.1181 50.7661 92.4254 49.3419 94.6445 48.9831C96.8635 48.6243 99.1433 48.9831 101.379 48.7899C103.249 48.6052 105.057 48.0212 106.682 47.0775C108.306 46.1337 109.709 44.8523 110.796 43.3196" stroke="white" stroke-linecap="round" stroke-linejoin="round"/>
<path d="M92.271 46.7696C96.2785 44.4015 101.909 46.8635 105.817 44.3353C106.923 43.5301 107.886 42.5449 108.665 41.4207" stroke="white" stroke-linecap="round" stroke-linejoin="round"/>
<path d="M143.392 137.358C129.04 140.223 123.685 150.783 123.685 150.783L106.684 177.56" stroke="#263238" stroke-linecap="round" stroke-linejoin="round"/>
<path d="M131.259 134.466C132.45 133.363 133.798 132.444 135.261 131.739" stroke="#263238" stroke-linecap="round" stroke-linejoin="round"/>
<path d="M121.223 154.68C121.223 154.68 123.034 145.009 128.234 137.883" stroke="#263238" stroke-linecap="round" stroke-linejoin="round"/>
<path d="M76.9751 175.314C76.9751 175.314 76.2299 145.688 73.6631 141.162" stroke="#263238" stroke-linecap="round" stroke-linejoin="round"/>
<path d="M136.922 117.448C136.922 117.448 145.202 122.416 148.879 127.086C152.555 131.756 161.243 134.858 163.231 141.162C163.231 141.162 151.788 177.218 139.798 190.251C127.809 203.284 121.207 208.633 121.207 208.633C121.207 208.633 92.3647 203.62 73.6575 187.91L80.3477 172.537C80.3477 172.537 99.2096 174.922 106.667 177.572C114.125 180.221 121.207 196.268 121.207 196.268" stroke="#263238" stroke-linecap="round" stroke-linejoin="round"/>
<path d="M106.684 177.572C106.684 177.572 119.887 180.138 124.176 186.15" stroke="#263238" stroke-linecap="round" stroke-linejoin="round"/>
<path d="M144.678 183.754L135.261 225.182H77.6043L75.6392 210.703" stroke="#263238" stroke-linecap="round" stroke-linejoin="round"/>
<path d="M102.433 206.601C99.2483 213.126 95.0475 211.685 95.0475 211.685C62.5623 212.916 50.595 200.778 50.595 200.778C50.595 200.778 48.939 183.704 55.3256 160.664C61.7122 137.623 73.6741 117.448 73.6741 117.448C78.9788 113.92 90.8137 111.166 94.1533 110.437L95.0475 110.25" stroke="#263238" stroke-linecap="round" stroke-linejoin="round"/>
<path d="M95.064 211.685C95.064 211.685 93.3473 211.404 93.7833 200.021" stroke="#263238" stroke-linecap="round" stroke-linejoin="round"/>
<path d="M74.5518 188.639C74.5518 188.639 66.4374 185.78 56.3855 192.735" stroke="#263238" stroke-linecap="round" stroke-linejoin="round"/>
<path d="M58.207 186.15C58.207 186.15 68.8386 182.987 73.663 188.054" stroke="#263238" stroke-linecap="round" stroke-linejoin="round"/>
<path d="M72.5149 187.767L73.8949 188.457L79.1499 175.33C79.1499 175.33 73.7072 174.442 65.085 185.178C67.7774 185.209 70.386 186.118 72.5149 187.767Z" fill="#999999" stroke="#263238" stroke-miterlimit="10"/>
<path d="M93.7668 200.021V205.856C93.7668 205.856 101.202 208.064 106.706 204.89L93.7668 200.021Z" fill="#999999" stroke="#263238" stroke-miterlimit="10"/>
<path d="M134.068 119.391C134.074 119.499 134.063 119.607 134.035 119.711C133.804 120.622 128.134 142.023 109.99 151.545C109.832 151.629 109.656 151.673 109.477 151.672C109.23 151.672 108.991 151.589 108.797 151.437C108.602 151.284 108.465 151.072 108.406 150.832C108.347 150.593 108.369 150.34 108.471 150.115C108.572 149.89 108.745 149.706 108.964 149.591C125.524 140.908 131.358 121.119 131.866 119.297L134.068 119.391Z" fill="#263238"/>
<path d="M95.0254 113.716C92.157 120.268 90.6095 127.321 90.4714 134.471C90.4714 135.051 90.4714 135.642 90.4714 136.243C90.4714 136.392 90.4714 136.541 90.4714 136.69C90.3067 136.696 90.1426 136.713 89.9801 136.74C89.3828 136.834 88.8037 137.021 88.2634 137.292C88.2634 136.481 88.2634 135.691 88.2634 134.913C88.5008 122.526 92.1992 114.097 94.1698 110.454L95.0641 110.266C94.5566 110.749 94.2376 111.397 94.1643 112.093C94.1807 112.41 94.2663 112.72 94.4151 113C94.5639 113.28 94.7722 113.525 95.0254 113.716Z" fill="#263238"/>
<path d="M116.763 146.566C118.055 148.36 116.995 151.341 114.39 153.223C111.784 155.105 108.627 155.171 107.33 153.377C106.032 151.583 107.092 148.603 109.698 146.72C112.303 144.838 115.488 144.772 116.763 146.566Z" fill="white" stroke="#263238" stroke-linecap="round" stroke-linejoin="round"/>
<path d="M113.551 145.5C114.467 146.77 113.716 148.879 111.895 150.209C110.073 151.539 107.815 151.589 106.927 150.319C106.038 149.05 106.761 146.941 108.583 145.611C110.404 144.28 112.634 144.236 113.551 145.5Z" fill="white" stroke="#263238" stroke-linecap="round" stroke-linejoin="round"/>
<path d="M98.9611 167.906C98.726 168.062 98.4399 168.123 98.1617 168.075C97.8835 168.026 97.6343 167.874 97.4654 167.647C97.2964 167.421 97.2205 167.139 97.2534 166.858C97.2862 166.578 97.4252 166.321 97.6418 166.14C97.7357 166.062 101.44 162.91 99.8167 152.295C99.6787 151.396 99.5021 150.435 99.2647 149.425C98.5637 146.207 97.4818 142.133 95.2682 139.141C94.7416 138.352 94.0205 137.712 93.1745 137.283C92.3285 136.853 91.3861 136.649 90.4382 136.69C90.2736 136.696 90.1094 136.713 89.947 136.74C89.3497 136.834 88.7706 137.021 88.2302 137.292C86.5812 138.144 85.3296 139.605 84.7416 141.366L84.5429 141.918C83.2912 145.303 82.2677 148.768 81.4793 152.29C80.5961 156.623 80.298 161.166 81.8657 164.34C82.2857 165.211 82.8841 165.984 83.622 166.609C84.36 167.233 85.221 167.696 86.1492 167.967C86.3984 168.049 86.6103 168.217 86.747 168.441C86.8836 168.665 86.936 168.93 86.8948 169.189C86.8536 169.448 86.7215 169.684 86.5222 169.854C86.3229 170.025 86.0693 170.119 85.807 170.12C85.6907 170.119 85.5752 170.101 85.4647 170.064C84.2575 169.702 83.1387 169.093 82.1791 168.276C81.2194 167.459 80.4398 166.451 79.8895 165.317C78.1231 161.746 78.355 156.883 79.2492 152.29C80.042 148.513 81.1159 144.801 82.4618 141.184L82.6606 140.632C83.0945 139.318 83.8214 138.12 84.7863 137.128C85.7512 136.137 86.9288 135.377 88.2302 134.907C88.6807 134.751 89.1445 134.637 89.6158 134.565C89.8973 134.527 90.1678 134.499 90.4548 134.482C91.7469 134.447 93.0272 134.736 94.1787 135.323C95.3301 135.911 96.3159 136.777 97.0457 137.844C99.5076 141.156 100.678 145.533 101.423 148.967C101.682 150.148 101.881 151.258 102.03 152.306C103.775 164.208 99.1764 167.751 98.9611 167.906Z" fill="#263238" stroke="#263238" stroke-miterlimit="10"/>
<path d="M85.0343 169.926C85.0343 169.926 89.0363 171.582 90.0519 169.926C91.0676 168.27 90.2451 167.492 88.8596 167.36C87.4787 167.289 86.095 167.289 84.7141 167.36L85.0343 169.926Z" fill="#263238" stroke="#263238" stroke-miterlimit="10"/>
<path d="M86.8724 169.374C86.8002 169.596 86.6599 169.789 86.4715 169.925C86.2832 170.062 86.0564 170.136 85.8236 170.136C85.7073 170.136 85.5918 170.117 85.4813 170.081C84.2741 169.718 83.1553 169.109 82.1957 168.292C81.236 167.475 80.4564 166.468 79.9061 165.334C78.1397 161.762 78.3716 156.899 79.2658 152.307H81.4738C80.5906 156.64 80.2925 161.183 81.8602 164.357C82.2803 165.228 82.8786 166 83.6166 166.625C84.3545 167.25 85.2155 167.713 86.1437 167.983C86.2834 168.026 86.4132 168.096 86.5256 168.189C86.638 168.283 86.7307 168.397 86.7985 168.527C86.8663 168.656 86.9077 168.798 86.9204 168.943C86.9331 169.089 86.9167 169.235 86.8724 169.374Z" fill="white" stroke="#263238" stroke-linecap="round" stroke-linejoin="round"/>
<path d="M95.2738 166.708C95.1075 166.906 94.9846 167.136 94.9133 167.384C94.842 167.633 94.8237 167.893 94.8598 168.149C94.9701 168.527 95.2095 168.854 95.5362 169.074C95.863 169.294 96.2565 169.393 96.6483 169.352C97.4324 169.248 98.1491 168.854 98.6576 168.248C99.2096 167.63 101.125 163.584 99.3531 164.279C98.0669 164.765 96.1349 165.588 95.2738 166.708Z" fill="#263238" stroke="#263238" stroke-miterlimit="10"/>
<path d="M98.9611 167.906C98.726 168.062 98.4399 168.123 98.1617 168.075C97.8835 168.026 97.6343 167.874 97.4653 167.647C97.2964 167.421 97.2205 167.139 97.2533 166.858C97.2862 166.578 97.4252 166.321 97.6418 166.14C97.7357 166.062 101.44 162.91 99.8167 152.295H102.025C103.775 164.208 99.1764 167.751 98.9611 167.906Z" fill="white" stroke="#263238" stroke-linecap="round" stroke-linejoin="round"/>
<path opacity="0.2" d="M108.864 70.34C108.864 70.34 115.814 66.7299 122.2 70.34C122.2 70.34 122.305 75.6668 119.893 77.8583C119.037 78.6366 115.118 78.7691 113.633 78.6366C107.606 78.0901 108.864 70.34 108.864 70.34Z" fill="white"/>
<path opacity="0.2" d="M104.503 70.34C104.503 70.34 97.5537 66.7299 91.1725 70.34C91.1725 70.34 91.0677 75.6668 93.4744 77.8583C94.33 78.6366 98.2547 78.7691 99.7341 78.6366C105.762 78.0901 104.503 70.34 104.503 70.34Z" fill="white"/>
<path d="M108.864 70.34C108.864 70.34 115.814 66.7299 122.2 70.34C122.2 70.34 122.305 75.6668 119.893 77.8583C119.037 78.6366 115.118 78.7691 113.633 78.6366C107.606 78.0901 108.864 70.34 108.864 70.34Z" stroke="#263238" stroke-miterlimit="10"/>
<path d="M104.503 70.34C104.503 70.34 97.5537 66.7299 91.1725 70.34C91.1725 70.34 91.0677 75.6668 93.4744 77.8583C94.33 78.6366 98.2547 78.7691 99.7341 78.6366C105.762 78.0901 104.503 70.34 104.503 70.34Z" stroke="#263238" stroke-miterlimit="10"/>
<path d="M104.503 70.34C104.503 70.34 106.06 69.1974 108.864 70.34" stroke="#263238" stroke-miterlimit="10"/>
<path d="M122.2 70.34L125.104 71.6869" stroke="#263238" stroke-miterlimit="10"/>
<path d="M11.0605 239.876L31.4901 220.578H193.635L205.911 239.876H11.0605Z" fill="white" stroke="#263238" stroke-linecap="round" stroke-linejoin="round"/>
<path d="M205.911 239.876H11.0605V245.07H205.911V239.876Z" fill="#263238" stroke="#263238" stroke-linecap="round" stroke-linejoin="round"/>
<path d="M31.4902 235.106V231.104H63.5062V235.106H57.3294H31.4902Z" fill="white" stroke="#263238" stroke-miterlimit="10"/>
<path d="M31.4902 231.105L50.4018 218.42L75.6392 219.016L63.5062 231.105H31.4902Z" fill="white" stroke="#263238" stroke-linecap="round" stroke-linejoin="round"/>
<path d="M63.5063 235.106L75.6393 222.951V219.016L63.5063 231.104V235.106Z" fill="white" stroke="#263238" stroke-linecap="round" stroke-linejoin="round"/>
<path d="M62.6395 230.094C62.6395 230.094 60.0837 230.602 60.0837 232.816C60.0837 235.029 62.2917 235.681 62.2917 235.681" stroke="#263238" stroke-width="2" stroke-linecap="round" stroke-linejoin="round"/>
<path d="M60.0838 230.094C60.0838 230.094 57.5281 230.602 57.5281 232.816C57.5281 235.029 59.7361 235.681 59.7361 235.681" stroke="#263238" stroke-width="2" stroke-linecap="round" stroke-linejoin="round"/>
<path d="M57.5282 230.094C57.5282 230.094 54.9724 230.602 54.9724 232.816C54.9724 235.029 57.1804 235.681 57.1804 235.681" stroke="#263238" stroke-width="2" stroke-linecap="round" stroke-linejoin="round"/>
<path d="M54.9723 230.094C54.9723 230.094 52.4165 230.602 52.4165 232.816C52.4165 235.029 54.6245 235.681 54.6245 235.681" stroke="#263238" stroke-width="2" stroke-linecap="round" stroke-linejoin="round"/>
<path d="M52.4166 230.094C52.4166 230.094 49.8608 230.602 49.8608 232.816C49.8608 235.029 52.0688 235.681 52.0688 235.681" stroke="#263238" stroke-width="2" stroke-linecap="round" stroke-linejoin="round"/>
<path d="M49.8607 230.094C49.8607 230.094 47.3049 230.602 47.3049 232.816C47.3049 235.029 49.5129 235.681 49.5129 235.681" stroke="#263238" stroke-width="2" stroke-linecap="round" stroke-linejoin="round"/>
<path d="M47.305 230.094C47.305 230.094 44.7493 230.602 44.7493 232.816C44.7493 235.029 46.9573 235.681 46.9573 235.681" stroke="#263238" stroke-width="2" stroke-linecap="round" stroke-linejoin="round"/>
<path d="M44.7494 230.094C44.7494 230.094 42.1936 230.602 42.1936 232.816C42.1936 235.029 44.4016 235.681 44.4016 235.681" stroke="#263238" stroke-width="2" stroke-linecap="round" stroke-linejoin="round"/>
<path d="M41.8788 230.094C41.8788 230.094 39.323 230.602 39.323 232.816C39.323 235.029 41.531 235.681 41.531 235.681" stroke="#263238" stroke-width="2" stroke-linecap="round" stroke-linejoin="round"/>
<path d="M39.003 230.094C39.003 230.094 36.4473 230.602 36.4473 232.816C36.4473 235.029 38.6553 235.681 38.6553 235.681" stroke="#263238" stroke-width="2" stroke-linecap="round" stroke-linejoin="round"/>
<path d="M35.807 230.094C35.807 230.094 33.2512 230.602 33.2512 232.816C33.2512 235.029 35.4592 235.681 35.4592 235.681" stroke="#263238" stroke-width="2" stroke-linecap="round" stroke-linejoin="round"/>
<path d="M52.008 221.527C50.2449 222.5 48.8475 224.021 48.0281 225.861C50.352 225.126 52.1902 223.47 53.951 221.814L52.0411 226.551C52.9204 226.479 53.7704 226.201 54.5223 225.74C55.2742 225.279 55.9068 224.647 56.3688 223.895C56.2175 223.961 56.0817 224.057 55.9702 224.179C55.8588 224.3 55.7743 224.444 55.7222 224.6C55.67 224.756 55.6515 224.922 55.6679 225.086C55.6842 225.25 55.7349 225.408 55.8168 225.551C57.4176 225.32 58.4388 223.774 59.2447 222.372C59.3928 223.152 59.4502 223.947 59.4158 224.74C60.7545 224.932 62.1201 224.758 63.3682 224.238" stroke="#263238" stroke-width="0.75" stroke-linecap="round" stroke-linejoin="round"/>
<path d="M192.553 201.247H136.906V231.8H192.553V201.247Z" fill="white" stroke="#263238" stroke-linecap="round" stroke-linejoin="round"/>
<path d="M136.69 231.794L127.742 223.288V192.735L136.69 201.247V231.794Z" fill="white" stroke="#263238" stroke-linecap="round" stroke-linejoin="round"/>
<path d="M192.553 201.247L183.605 192.735H127.963L136.906 201.247H192.553Z" fill="white" stroke="#263238" stroke-linecap="round" stroke-linejoin="round"/>
<path d="M172.09 212.706H167.172V207.562H160.239V212.706H154.873V219.639H160.239V224.779H167.172V219.639H172.09V212.706Z" fill="#50505B" stroke="#263238" stroke-miterlimit="10"/>
<path d="M164.246 201.247L155.298 192.735" stroke="#263238" stroke-linecap="round" stroke-linejoin="round"/>
<path d="M46.6241 71.3914C53.1149 64.9006 53.1149 54.3769 46.6241 47.8861C40.1333 41.3953 29.6096 41.3953 23.1188 47.8861C16.628 54.3769 16.628 64.9006 23.1188 71.3914C29.6096 77.8822 40.1333 77.8822 46.6241 71.3914Z" fill="white" stroke="#263238" stroke-linecap="round" stroke-linejoin="round"/>
<path d="M48.696 57.092C48.6959 58.2046 48.347 59.2892 47.6985 60.1932C47.0499 61.0972 46.1343 61.7752 45.0804 62.1318L37.656 64.6324L28.6198 67.6849C27.2887 68.1225 25.8385 68.0163 24.5853 67.3893C23.3322 66.7623 22.3777 65.6655 21.9297 64.3377C21.4818 63.01 21.5768 61.5591 22.1941 60.3011C22.8113 59.0432 23.9008 58.0801 25.225 57.622L33.4332 54.862L41.6801 52.102C42.478 51.8336 43.3281 51.7586 44.1606 51.883C44.9932 52.0074 45.7842 52.3278 46.4687 52.8177C47.1532 53.3076 47.7116 53.9531 48.0978 54.701C48.4841 55.4489 48.6872 56.2779 48.6905 57.1196L48.696 57.092Z" fill="white"/>
<path d="M48.6961 57.092C48.696 58.2046 48.3471 59.2892 47.6986 60.1932C47.05 61.0972 46.1344 61.7752 45.0805 62.1318L37.6562 64.6324C37.4582 60.9747 35.9607 57.5079 33.4333 54.8564L41.6802 52.0964C42.4781 51.8281 43.3282 51.753 44.1607 51.8775C44.9933 52.0019 45.7843 52.3223 46.4688 52.8122C47.1533 53.3021 47.7117 53.9476 48.0979 54.6955C48.4842 55.4434 48.6874 56.2724 48.6906 57.1141L48.6961 57.092Z" fill="#50505B"/>
<path d="M48.696 57.092C48.6959 58.2046 48.347 59.2892 47.6985 60.1932C47.0499 61.0972 46.1343 61.7752 45.0804 62.1318L37.656 64.6324L28.6198 67.6849C27.2886 68.1225 25.8385 68.0163 24.5853 67.3893C23.3322 66.7623 22.3777 65.6655 21.9297 64.3377C21.4818 63.01 21.5768 61.5591 22.1941 60.3011C22.8113 59.0432 23.9008 58.0801 25.225 57.622L33.4332 54.862L41.6801 52.102C42.478 51.8336 43.3281 51.7586 44.1606 51.883C44.9932 52.0074 45.7842 52.3278 46.4687 52.8177C47.1532 53.3076 47.7116 53.9531 48.0978 54.701C48.4841 55.4489 48.6872 56.2779 48.6905 57.1196L48.696 57.092Z" stroke="#263238" stroke-linecap="round" stroke-linejoin="round"/>
<path d="M37.6562 64.6323C37.4872 60.9679 35.9855 57.4914 33.4333 54.8564" stroke="#263238" stroke-linecap="round" stroke-linejoin="round"/>
<path d="M46.9187 55.1104C47.2672 55.6974 47.4432 56.3709 47.4265 57.0534" stroke="white" stroke-linecap="round" stroke-linejoin="round"/>
<path d="M35.531 55.6624L42.155 53.4544C42.7491 53.2506 43.381 53.1811 44.0053 53.2508C44.6295 53.3204 45.2305 53.5276 45.7651 53.8573" stroke="white" stroke-linecap="round" stroke-linejoin="round"/>
<path d="M147.804 37.0907C156.257 33.5129 160.21 23.7597 156.632 15.3063C153.054 6.85285 143.301 2.9004 134.847 6.47822C126.394 10.056 122.441 19.8093 126.019 28.2627C129.597 36.7161 139.35 40.6685 147.804 37.0907Z" fill="white" stroke="#263238" stroke-linecap="round" stroke-linejoin="round"/>
<path d="M147.057 28.7413L132.562 23.8892C131.356 23.484 130.361 22.6168 129.795 21.4782C129.229 20.3397 129.138 19.0228 129.542 17.8172C129.947 16.6119 130.815 15.6168 131.953 15.0506C133.092 14.4844 134.409 14.3935 135.614 14.7978L150.11 19.6443C151.314 20.0508 152.308 20.9181 152.874 22.0563C153.44 23.1945 153.532 24.5107 153.129 25.7163C152.724 26.9218 151.857 27.9172 150.719 28.4843C149.58 29.0514 148.263 29.1438 147.057 28.7413Z" fill="#50505B"/>
<path d="M136.437 23.5028L138.865 17.7013" stroke="#263238" stroke-linecap="round" stroke-linejoin="round"/>
<path d="M144.424 26.1579L146.842 20.373" stroke="#263238" stroke-linecap="round" stroke-linejoin="round"/>
<path d="M138.44 23.8451C138.712 23.8451 138.932 23.6251 138.932 23.3538C138.932 23.0825 138.712 22.8625 138.44 22.8625C138.169 22.8625 137.949 23.0825 137.949 23.3538C137.949 23.6251 138.169 23.8451 138.44 23.8451Z" fill="#263238"/>
<path d="M143.27 24.8C143.27 24.8972 143.241 24.9922 143.187 25.073C143.133 25.1538 143.057 25.2167 142.967 25.2539C142.877 25.2911 142.778 25.3008 142.683 25.2819C142.588 25.2629 142.5 25.2161 142.431 25.1474C142.363 25.0787 142.316 24.9912 142.297 24.8959C142.278 24.8006 142.288 24.7018 142.325 24.612C142.362 24.5223 142.425 24.4455 142.506 24.3915C142.587 24.3376 142.682 24.3087 142.779 24.3087C142.909 24.3087 143.034 24.3605 143.126 24.4526C143.218 24.5448 143.27 24.6697 143.27 24.8Z" fill="#263238"/>
<path d="M140.345 19.4732C140.616 19.4732 140.836 19.2533 140.836 18.9819C140.836 18.7106 140.616 18.4907 140.345 18.4907C140.073 18.4907 139.854 18.7106 139.854 18.9819C139.854 19.2533 140.073 19.4732 140.345 19.4732Z" fill="#263238"/>
<path d="M145.103 20.384C145.103 20.4812 145.074 20.5762 145.02 20.657C144.966 20.7378 144.889 20.8007 144.8 20.8379C144.71 20.8751 144.611 20.8848 144.516 20.8659C144.42 20.8469 144.333 20.8001 144.264 20.7314C144.196 20.6627 144.149 20.5752 144.13 20.4799C144.111 20.3846 144.121 20.2858 144.158 20.196C144.195 20.1063 144.258 20.0295 144.339 19.9756C144.419 19.9216 144.514 19.8928 144.612 19.8928C144.742 19.8928 144.867 19.9445 144.959 20.0367C145.051 20.1288 145.103 20.2537 145.103 20.384Z" fill="#263238"/>
<path d="M147.057 28.7413L132.562 23.8892C131.356 23.484 130.361 22.6168 129.795 21.4782C129.229 20.3397 129.138 19.0228 129.542 17.8172C129.947 16.6119 130.815 15.6168 131.953 15.0506C133.092 14.4844 134.409 14.3935 135.614 14.7978L150.11 19.6443C151.314 20.0508 152.308 20.9181 152.874 22.0563C153.44 23.1945 153.532 24.5107 153.129 25.7163C152.724 26.9218 151.857 27.9172 150.719 28.4843C149.58 29.0514 148.263 29.1438 147.057 28.7413Z" stroke="#263238" stroke-linecap="round" stroke-linejoin="round"/>
<path d="M78.5814 37.5015C87.7608 37.5015 95.2021 30.0602 95.2021 20.8808C95.2021 11.7015 87.7608 4.2601 78.5814 4.2601C69.402 4.2601 61.9607 11.7015 61.9607 20.8808C61.9607 30.0602 69.402 37.5015 78.5814 37.5015Z" fill="white" stroke="#263238" stroke-linecap="round" stroke-linejoin="round"/>
<path d="M88.1033 21.3059V28.1176C88.1033 29.8453 86.9993 31.2474 85.6469 31.2474H71.5157C70.1578 31.2474 69.0593 29.8453 69.0593 28.1176V21.3059C69.0593 19.5781 70.1633 18.176 71.5157 18.176H73.8396V14.2237H83.2236V18.176H85.6304C86.9993 18.176 88.1033 19.5781 88.1033 21.3059Z" fill="white" stroke="#263238" stroke-linecap="round" stroke-linejoin="round"/>
<path d="M88.0978 22.0897H69.0593V26.3125H88.0978V22.0897Z" fill="#50505B" stroke="#263238" stroke-miterlimit="10"/>
<path d="M75.1369 9.59794H82.1142C82.9018 9.59794 83.6572 9.91082 84.2141 10.4678C84.7711 11.0247 85.0839 11.7801 85.0839 12.5677V15.6534H72.1616V12.5677C72.1616 12.1772 72.2386 11.7906 72.3882 11.4299C72.5378 11.0693 72.757 10.7416 73.0334 10.4658C73.3097 10.19 73.6378 9.97133 73.9987 9.82241C74.3597 9.67349 74.7464 9.59721 75.1369 9.59794Z" fill="#50505B" stroke="#263238" stroke-miterlimit="10"/>
<path d="M74.4194 9.78564V15.6534" stroke="#263238" stroke-linecap="round" stroke-linejoin="round"/>
<path d="M77.4719 9.59796V15.6534" stroke="#263238" stroke-linecap="round" stroke-linejoin="round"/>
<path d="M80.5244 9.59796V15.6534" stroke="#263238" stroke-linecap="round" stroke-linejoin="round"/>
<path d="M83.5769 9.94019V15.6534" stroke="#263238" stroke-linecap="round" stroke-linejoin="round"/>
<path d="M35.9992 111.743C37.4842 102.684 31.3447 94.1373 22.2863 92.6523C13.2278 91.1673 4.68067 97.3068 3.19567 106.365C1.71067 115.424 7.85016 123.971 16.9086 125.456C25.9671 126.941 34.5142 120.801 35.9992 111.743Z" fill="white" stroke="#263238" stroke-linecap="round" stroke-linejoin="round"/>
<path d="M28.0286 113.342C29.8389 109.514 27.3498 104.539 22.469 102.231C17.5881 99.9229 12.1639 101.155 10.3536 104.983C8.54324 108.811 11.0324 113.785 15.9132 116.094C20.794 118.402 26.2183 117.17 28.0286 113.342Z" fill="#50505B" stroke="#263238" stroke-linecap="round" stroke-linejoin="round"/>
<path d="M28.6323 112.04C30.3305 108.449 27.7505 103.666 22.8697 101.358C17.9889 99.0501 12.6555 100.09 10.9573 103.681C9.25902 107.272 11.839 112.054 16.7198 114.363C21.6007 116.671 26.934 115.631 28.6323 112.04Z" fill="#50505B" stroke="#263238" stroke-linecap="round" stroke-linejoin="round"/>
<path d="M22.6142 102.947L16.5808 111.431" stroke="#263238" stroke-linecap="round" stroke-linejoin="round"/>
<path d="M18.9819 101.572C19.7905 101.681 20.5871 101.866 21.3611 102.124" stroke="white" stroke-linecap="round" stroke-linejoin="round"/>
<path d="M13.6219 109.56C13.6219 109.56 10.5418 106.187 13.5502 102.936C14.2444 102.228 15.1485 101.763 16.128 101.611" stroke="white" stroke-linecap="round" stroke-linejoin="round"/>
<path d="M211.074 111.753C212.559 102.694 206.419 94.1469 197.361 92.6619C188.302 91.1769 179.755 97.3164 178.27 106.375C176.785 115.433 182.925 123.981 191.983 125.466C201.042 126.951 209.589 120.811 211.074 111.753Z" fill="white" stroke="#263238" stroke-linecap="round" stroke-linejoin="round"/>
<path d="M204.211 110.73C204.084 110.912 203.957 111.1 203.825 111.282C201.335 114.732 197.499 117.95 194.656 118.585V118.541C191.896 117.922 188.181 114.859 185.691 111.514C185.553 111.332 185.421 111.144 185.294 110.962C182.898 107.528 181.888 103.924 184.554 102.433C189.975 99.4084 194.656 105.894 194.656 105.894C194.656 105.894 199.348 99.458 204.758 102.477C207.352 103.924 206.463 107.379 204.211 110.73Z" fill="#50505B" stroke="#263238" stroke-miterlimit="10"/>
<path d="M204.211 110.73C204.084 110.912 203.957 111.1 203.825 111.282H202.456L200.888 113.352L199.823 107.214L198.167 111.387H194.253L192.249 114.726L190.704 107.964L188.711 111.492H185.691C185.553 111.309 185.421 111.122 185.294 110.94H188.391L190.924 106.452L192.481 113.269L193.955 110.813H197.819L200.027 105.16L201.208 111.983L202.174 110.708L204.211 110.73Z" fill="white"/>
<path d="M178.67 76.4451C187.849 76.4451 195.291 69.0038 195.291 59.8244C195.291 50.6451 187.849 43.2037 178.67 43.2037C169.491 43.2037 162.049 50.6451 162.049 59.8244C162.049 69.0038 169.491 76.4451 178.67 76.4451Z" fill="white" stroke="#263238" stroke-linecap="round" stroke-linejoin="round"/>
<path d="M177.423 52.1406C177.583 52.4994 176.584 53.2943 175.215 53.918C173.846 54.5418 172.565 54.7571 172.405 54.3927C172.245 54.0284 173.238 53.2391 174.613 52.6153C175.987 51.9915 177.257 51.7983 177.423 52.1406Z" fill="white" stroke="#263238" stroke-linecap="round" stroke-linejoin="round"/>
<path d="M184.902 67.558L179.929 69.9647L175.468 60.7794L172.388 54.4314L177.362 52.0192L180.365 58.2126L184.902 67.558Z" fill="white" stroke="#263238" stroke-linecap="round" stroke-linejoin="round"/>
<path d="M173.31 56.3247L175.468 55.3256L173.31 56.3247Z" fill="#50505B"/>
<path d="M173.31 56.3247L175.468 55.3256" stroke="#263238" stroke-linecap="round" stroke-linejoin="round"/>
<path d="M174.249 58.323L176.407 57.3239L174.249 58.323Z" fill="#50505B"/>
<path d="M174.249 58.323L176.407 57.3239" stroke="#263238" stroke-linecap="round" stroke-linejoin="round"/>
<path d="M181.833 69.0428L184.4 72.41L183.119 68.4191L181.833 69.0428Z" fill="white" stroke="#263238" stroke-linecap="round" stroke-linejoin="round"/>
<path d="M184.902 67.558C183.738 68.7237 182.252 69.5155 180.635 69.8322L179.929 69.9647L175.469 60.7794L180.365 58.2126L184.902 67.558Z" fill="#50505B" stroke="#263238" stroke-miterlimit="10"/>
<path d="M176.407 62.5237L178.438 61.5853" stroke="#263238" stroke-linecap="round" stroke-linejoin="round"/>
<path d="M177.522 64.66L179.515 63.7491L177.522 64.66Z" fill="#50505B"/>
<path d="M177.522 64.66L179.515 63.7491" stroke="#263238" stroke-linecap="round" stroke-linejoin="round"/>
<path d="M174.111 53.5924L172.537 50.054L173.774 49.353L175.468 52.9355L174.111 53.5924Z" fill="white" stroke="#263238" stroke-linecap="round" stroke-linejoin="round"/>
<path d="M176.81 48.9224L176.435 48.0944L169.811 51.0587L170.186 51.8867C170.34 52.2399 171.947 51.8535 173.779 51.0366C175.612 50.2196 176.964 49.2702 176.81 48.9224Z" fill="white" stroke="#263238" stroke-linecap="round" stroke-linejoin="round"/>
<path d="M176.434 48.0944C176.28 47.7467 174.668 48.1276 172.841 48.9445C171.014 49.7615 169.656 50.7109 169.81 51.0587C169.965 51.4064 171.577 51.0256 173.404 50.2031C175.231 49.3806 176.589 48.4422 176.434 48.0944Z" fill="white" stroke="#263238" stroke-linecap="round" stroke-linejoin="round"/>
</svg>
